<mxfile host="app.diagrams.net" modified="2021-07-09T04:31:17.412Z" agent="5.0 (Windows NT 10.0; WOW64) AppleWebKit/537.36 (KHTML, like Gecko) Chrome/91.0.4472.124 Safari/537.36" etag="T8oSqZdVWTDFY5y8oWNU" version="14.8.5" type="github">
  <diagram id="yr-E3HrBfoQYO4jrcSyG" name="Page-1">
    <mxGraphModel dx="1108" dy="482" grid="1" gridSize="10" guides="1" tooltips="1" connect="1" arrows="1" fold="1" page="1" pageScale="1" pageWidth="850" pageHeight="1100" math="0" shadow="0">
      <root>
        <mxCell id="0" />
        <mxCell id="1" parent="0" />
        <mxCell id="Jl4pempMeDds4YhgWoXO-1" value="" style="rounded=1;whiteSpace=wrap;html=1;" vertex="1" parent="1">
          <mxGeometry x="305" y="90" width="205" height="300" as="geometry" />
        </mxCell>
        <mxCell id="Jl4pempMeDds4YhgWoXO-2" value="" style="shape=crossbar;whiteSpace=wrap;html=1;rounded=1;" vertex="1" parent="1">
          <mxGeometry x="305" y="300" width="205" height="20" as="geometry" />
        </mxCell>
        <mxCell id="Jl4pempMeDds4YhgWoXO-4" value="" style="shape=crossbar;whiteSpace=wrap;html=1;rounded=1;" vertex="1" parent="1">
          <mxGeometry x="305" y="210" width="205" height="20" as="geometry" />
        </mxCell>
        <mxCell id="Jl4pempMeDds4YhgWoXO-5" value="HARDWARE" style="text;html=1;strokeColor=none;fillColor=none;align=center;verticalAlign=middle;whiteSpace=wrap;rounded=0;" vertex="1" parent="1">
          <mxGeometry x="387" y="340" width="40" height="20" as="geometry" />
        </mxCell>
        <mxCell id="Jl4pempMeDds4YhgWoXO-6" value="OS&amp;nbsp;" style="text;html=1;strokeColor=none;fillColor=none;align=center;verticalAlign=middle;whiteSpace=wrap;rounded=0;" vertex="1" parent="1">
          <mxGeometry x="380" y="250" width="40" height="20" as="geometry" />
        </mxCell>
        <mxCell id="Jl4pempMeDds4YhgWoXO-7" value="MYSQL+APPACHE" style="text;html=1;strokeColor=none;fillColor=none;align=center;verticalAlign=middle;whiteSpace=wrap;rounded=0;" vertex="1" parent="1">
          <mxGeometry x="385" y="150" width="40" height="20" as="geometry" />
        </mxCell>
        <mxCell id="Jl4pempMeDds4YhgWoXO-8" value="" style="line;strokeWidth=2;html=1;" vertex="1" parent="1">
          <mxGeometry x="310" y="180" width="200" height="10" as="geometry" />
        </mxCell>
        <mxCell id="Jl4pempMeDds4YhgWoXO-9" value="same resource using both the application" style="text;html=1;strokeColor=none;fillColor=none;align=center;verticalAlign=middle;whiteSpace=wrap;rounded=0;" vertex="1" parent="1">
          <mxGeometry x="307.5" y="190" width="200" height="20" as="geometry" />
        </mxCell>
      </root>
    </mxGraphModel>
  </diagram>
</mxfile>
